<svg width="118" height="69" viewBox="0 0 118 69" fill="none" xmlns="http://www.w3.org/2000/svg">
<path d="M55.2857 68.4865C59.3658 68.4368 63.4116 67.7339 67.2694 66.4044C74.3391 64.1081 79.0522 60.2184 81.864 57.8886C85.0134 55.2861 87.8528 52.3299 90.3263 49.0782L86.5705 46.1928C84.3154 49.1569 81.7277 51.8524 78.8581 54.2265C76.3007 56.3421 72.0294 59.8703 65.8166 61.8921C63.0316 62.7892 55.6472 65.1859 47.7406 62.5616C40.932 60.2987 36.8951 55.3446 31.3049 48.5025C22.7623 38.0117 19.9572 34.1421 19.9304 34.1421L19.83 33.9948C18.3237 31.8793 15.1905 27.4607 10.4573 25.5795C9.47096 25.1807 8.45464 24.8606 7.41784 24.6221C7.25761 24.5865 7.10846 24.5124 6.98327 24.4063C6.85808 24.3001 6.76063 24.1651 6.69933 24.0128C6.63802 23.8605 6.61472 23.6956 6.63143 23.5324C6.64814 23.3691 6.70436 23.2123 6.79522 23.0756L8.17435 20.9935C10.1521 18.1253 13.1128 16.0816 16.496 15.2494C19.2141 14.6469 22.8494 15.3297 25.9758 17.0369C27.1541 17.7064 28.3056 18.3759 29.4304 19.1123C32.3158 20.9333 35.295 22.8145 38.8767 23.3635C48.0553 24.7761 56.3167 17.1775 59.0281 14.6603C65.8099 8.44748 76.1199 3.01799 116.67 5.13355L117.065 0.487357C77.4923 -1.57464 64.6852 3.07825 55.848 11.199C49.6754 16.8829 44.1857 19.4136 39.6065 18.6972C36.9955 18.2955 34.5452 16.749 31.9543 15.1155C30.776 14.3724 29.5576 13.6025 28.2454 12.8861C24.1013 10.6233 19.3279 9.78644 15.4851 10.6367C10.9095 11.7202 6.90608 14.4791 4.26459 18.3692C2.76712 20.7928 1.63894 23.426 0.917188 26.182L0 29.7972L3.65536 29.0675C4.87382 28.8265 6.67472 29.1411 8.72333 29.9579C12.1511 31.2968 14.7487 34.9723 15.9805 36.7196L16.0943 36.8803C16.2215 37.0544 18.9798 40.8503 27.6495 51.4951C33.5142 58.692 38.1604 64.3825 46.2544 67.0739C49.1694 68.0267 52.2189 68.5037 55.2857 68.4865Z" fill="#252525"/>
<path d="M50.9676 67.2413C51.6371 54.963 53.9066 51.1738 58.4524 47.7728C61.7998 45.2422 66.0711 44.9878 71.447 44.6597C73.3617 44.5392 75.3501 44.4187 77.4723 44.1911C87.7288 43.0865 95.488 40.0202 102.631 34.2426C102.631 34.2426 112.62 25.8674 116.516 6.98808C116.67 6.21818 117.293 1.23055 117.032 0.487427C117.032 0.487427 116.262 3.43314 116.242 3.42645L114.16 4.48422C113.423 4.84574 112.654 3.88169 111.93 4.22982C111.341 9.7999 107.057 24.6155 99.6924 30.5739C93.2185 35.8159 86.43 38.4871 76.9903 39.498C74.9417 39.719 73.0136 39.8328 71.1457 39.9466C65.2208 40.3081 60.106 40.6161 55.6071 43.9635C49.2738 48.7101 46.9039 54.5145 46.2344 66.9534L50.9676 67.2413Z" fill="#252525"/>
<path d="M41.1664 60.426C41.5748 57.9355 43.5765 50.3302 46.067 46.2799C49.0585 41.5114 53.5039 37.8311 58.747 35.7824C62.7036 34.2092 65.7564 34.0083 70.3758 33.7004C71.5742 33.6267 72.94 33.533 74.3927 33.4125C78.1284 33.0978 86.6308 31.4844 92.0804 27.588C99.525 22.2723 104.205 13.154 105.698 3.84823L101.011 3.1051C99.7192 11.1857 95.7491 19.1726 89.3154 23.7519C85.0308 26.8047 77.7937 28.3914 73.9776 28.706C72.5383 28.8265 71.2596 28.9136 70.0143 28.9939C65.1338 29.322 61.6057 29.5563 56.9595 31.3973C50.7891 33.8321 45.5631 38.1828 42.0501 43.8095C39.0107 48.7503 36.9286 57.1522 36.5068 59.6561L41.1664 60.426Z" fill="#252525"/>
<path d="M33.7678 52.178C35.0064 39.1901 44.0912 30.7948 49.2596 27.896C52.607 25.988 62.1203 23.1628 71.1115 22.8012C88.0292 22.1318 90.8076 14.3591 93.2579 7.50362C93.4788 6.87431 94.3491 3.23903 94.5968 2.60972L90.1782 0.929321C89.9305 1.5988 89.0535 5.25416 88.8393 5.91695C86.6099 12.1565 84.6818 17.5391 70.9508 18.0881C63.7739 18.376 52.5668 20.6321 46.9767 23.7787C41.0049 27.1261 30.5209 36.8068 29.1016 51.7295L33.7678 52.178Z" fill="#252525"/>
</svg>
